<?xml version="1.0" encoding="UTF-8" standalone="no"?> <svg xmlns:inkscape="http://www.inkscape.org/namespaces/inkscape" xmlns:sodipodi="http://sodipodi.sourceforge.net/DTD/sodipodi-0.dtd" xmlns="http://www.w3.org/2000/svg" xmlns:svg="http://www.w3.org/2000/svg" width="414" height="129" viewBox="0 0 414 129" fill="none" version="1.1" id="svg13" sodipodi:docname="cb-logo-black.svg" inkscape:version="1.3.2 (091e20e, 2023-11-25, custom)"><defs id="defs13"></defs><path d="M196.063 0C196.063 0 226.555 21.3385 226.555 48.1736C226.555 72.8072 200.686 79.4116 200.686 79.4116C200.686 79.4116 240.754 76.6634 240.754 48.2887C240.754 16.2809 196.063 0.00719438 196.063 0.00719438V0Z" fill="#009F93" id="path1"></path><path d="M227.102 14.2969C227.102 14.2969 248.457 26.2827 248.457 48.2831C248.457 71.7081 222.041 78.1974 222.041 78.1974C222.041 78.1974 259.682 76.9887 259.682 48.3911C259.682 27.4914 227.102 14.2969 227.102 14.2969Z" fill="#009F93" id="path2"></path><path d="M46.7352 86.9098C44.8704 82.7946 39.9384 76.2117 27.5328 76.2117C17.8488 76.2117 8.496 81.9744 8.496 94.5502C8.496 104.896 17.2512 112.069 29.6568 112.069C38.412 112.069 44.9496 107.896 48.2688 102.371H49.968L48.78 108.248C46.1448 110.486 38.5848 113.248 28.4688 113.248C9.8568 113.248 0 104.371 0 95.0826C0 83.9097 10.8792 75.0391 28.3824 75.0391C34.3296 75.0391 44.4456 76.8592 48.6936 79.6219L48.2688 86.9098H46.7424H46.7352Z" fill="white" id="path3" style="fill:#000000;fill-opacity:1"></path><path d="M50.9257 111.728C54.8353 111.728 55.8577 110.814 55.8577 105.85V80.5043C55.8577 73.5833 55.1809 73.1228 51.9481 72.4034V71.3602L57.6433 69.3386C58.7521 68.9501 59.5153 68.6191 60.3649 68.6191C61.3009 68.6191 61.8121 69.1443 61.8121 69.7271V90.2383C63.7705 88.6699 67.5865 87.0368 72.5185 87.0368C78.2137 87.0368 84.8449 88.4756 84.8449 96.1161V105.85C84.8449 110.814 85.8673 111.728 89.8561 111.728V112.771H74.5561V111.728C77.8681 111.728 78.8905 110.814 78.8905 105.85V97.2312C78.8905 91.9433 75.9169 89.2598 70.0561 89.2598C66.8305 89.2598 64.1089 90.3678 61.8121 92.7203V105.85C61.8121 110.814 62.8273 111.728 67.6729 111.728V112.771H50.9329V111.728H50.9257Z" fill="white" id="path4" style="fill:#000000;fill-opacity:1"></path><path d="M110.325 94.2272C110.325 89.7163 108.115 88.6084 104.544 88.6084C96.7247 88.6084 99.9575 95.3352 94.9391 95.3352C93.4919 95.3352 92.4767 94.7452 92.4767 93.5725C92.4767 91.1552 100.123 87.04 106.668 87.04C112.363 87.04 116.273 89.2631 116.273 94.8747V109.184C116.273 110.688 117.461 111.076 118.397 111.076C119.671 111.076 120.521 110.688 121.37 110.098L122.22 110.817C121.032 112.256 118.145 113.3 115.589 113.3C113.033 113.3 110.491 111.861 110.325 109.443C106.329 112.249 102.42 113.3 99.1943 113.3C94.3487 113.3 90.9503 111.076 90.9503 108.206C90.9503 103.695 95.7959 101.033 105.739 99.069L110.333 98.1554V94.2272H110.325ZM110.325 99.1985L106.927 99.8532C100.548 101.098 97.2359 103.961 97.2359 106.702C97.2359 109.12 99.0215 111.076 102.845 111.076C105.566 111.076 108.029 109.774 110.325 108.4V99.1985Z" fill="white" id="path5" style="fill:#000000;fill-opacity:1"></path><path d="M121.421 111.73C125.582 111.73 126.605 110.816 126.605 105.852V94.557C126.605 91.485 125.669 90.967 123.97 90.7008C122.695 90.5066 122.443 90.4418 122.443 90.1109C122.443 89.8519 123.206 89.5929 124.142 89.1972C127.037 88.0245 130.01 86.6504 131.112 86.6504C131.796 86.6504 132.386 86.9741 132.386 87.6288V91.8088C136.634 88.8663 139.781 87.0389 145.051 87.0389C149.299 87.0389 152.87 88.2835 154.908 91.6145C157.795 90.1109 161.28 87.0389 167.227 87.0389C174.11 87.0389 178.618 90.2404 178.618 96.0534V105.852C178.618 110.816 179.64 111.73 183.629 111.73V112.773H167.652V111.73C171.648 111.73 172.663 110.816 172.663 105.852V96.7081C172.663 91.5498 170.28 89.6576 165.355 89.6576C161.705 89.6576 158.558 90.8303 155.585 92.7944V105.859C155.585 110.824 156.607 111.737 161.194 111.737V112.78H143.856V111.737C148.615 111.737 149.638 110.824 149.638 105.859V96.5211C149.638 91.226 147.175 89.2691 142.416 89.2691C138.845 89.2691 135.619 91.0318 132.559 93.5786V105.859C132.559 110.824 133.582 111.737 137.83 111.737V112.78H121.428V111.737L121.421 111.73Z" fill="white" id="path6" style="fill:#000000;fill-opacity:1"></path><path d="M192.838 61.808V90.9596C195.221 89.2617 198.108 87.0387 203.803 87.0387C211.111 87.0387 219.269 90.8301 219.269 99.7799C219.269 107.55 211.961 113.298 201.507 113.298C197.172 113.298 194.112 112.255 192.161 112.255C190.21 112.255 188.079 113.298 187.575 113.298C187.236 113.298 186.891 113.169 186.891 112.773V69.4484C186.891 67.4268 186.207 67.1606 184.68 66.5707C183.319 66.1174 183.154 65.9807 183.154 65.7217V65.0023C183.154 64.4771 183.579 64.2181 184.428 63.9591L191.571 61.8008H192.845L192.838 61.808ZM192.838 104.679C192.838 109.902 197.172 111.996 201.845 111.996C208.39 111.996 212.472 108.334 212.472 101.154C212.472 93.5784 208.224 89.2617 201.593 89.2617C199.044 89.2617 195.221 90.4344 192.838 92.5927V104.679Z" fill="white" id="path7" style="fill:#000000;fill-opacity:1"></path><path d="M227.93 97.2848C227.556 97.2273 227.333 98.2921 227.34 99.7813C227.34 105.594 231.926 110.688 239.832 110.688C243.23 110.688 245.952 109.774 249.689 107.817L250.711 108.861C246.888 111.213 243.144 113.3 237.622 113.3C227.506 113.3 221.386 106.638 221.386 100.889C221.386 92.6588 228.866 87.04 237.787 87.04C243.857 87.04 248.702 90.3423 250.171 93.7524C250.769 95.1409 251.021 96.3496 251.021 96.9611C251.021 97.2201 250.769 97.2848 250.171 97.2848H227.93ZM245.47 95.7668C245.383 91.6229 241.272 88.3494 236.938 88.3494C232.006 88.3494 228.65 92.3927 227.959 95.7309L245.47 95.7668Z" fill="white" id="path8" style="fill:#000000;fill-opacity:1"></path><path d="M251.222 111.73C255.305 111.73 256.32 110.816 256.32 105.852V94.2257C256.32 92.6573 255.895 92.0027 254.282 91.4199C253.094 90.9667 252.669 90.8947 252.669 90.5062C252.669 89.981 253.353 89.7868 256.579 88.6789C260.316 87.4342 260.489 86.6572 261.425 86.6572C262.022 86.6572 262.274 86.9162 262.274 87.3767V89.535C262.274 90.0602 262.613 90.3192 263.124 90.3192C263.887 90.3192 268.135 87.0529 272.469 87.0529C274.766 87.0529 276.206 87.8371 276.206 89.3407C276.206 90.5134 275.27 91.5638 272.297 91.5638C271.195 91.5638 269.15 91.3696 267.624 91.3696C264.564 91.3696 262.267 92.5494 262.267 96.0747V106.787C262.267 110.838 263.203 111.622 267.537 111.751V112.794H251.222V111.751V111.73Z" fill="white" id="path9" style="fill:#000000;fill-opacity:1"></path><path d="M295.834 92.7203C295.834 92.9865 295.661 93.2455 295.322 93.2455C294.898 93.2455 294.638 93.0513 294.473 92.857C292.86 90.5692 290.563 88.3461 287.251 88.3461C284.702 88.3461 282.665 89.6555 282.665 92.1376C282.665 98.6053 298.13 97.4326 298.13 105.462C298.13 108.534 294.142 113.296 286.15 113.296C281.304 113.296 276.379 111.138 276.379 109.901C276.379 109.512 277.229 106.958 277.229 106.375C277.229 105.922 277.654 105.721 278.165 105.721C279.36 105.721 279.95 111.994 286.661 111.994C289.296 111.994 292.529 110.555 292.529 107.354C292.529 100.821 277.063 101.21 277.063 94.0297C277.063 90.5692 281.052 87.0439 288.533 87.0439C290.484 87.0439 293.292 87.4324 295.078 87.8929C295.416 87.9576 295.675 88.1519 295.675 88.4109L295.848 92.7203H295.834Z" fill="white" id="path10" style="fill:#000000;fill-opacity:1"></path><path d="M308.153 111.598C313.848 111.598 314.863 110.778 314.863 106.31C314.863 100.195 315.374 86.5613 315.374 81.9713C315.374 77.3813 314.352 76.6834 308.743 76.6834V75.5107C312.487 75.5107 316.224 75.633 319.622 75.633C322.596 75.633 324.382 75.5107 327.866 75.5107C341.971 75.5107 348.862 78.9784 348.862 84.2088C348.862 90.7341 341.042 92.2017 335.261 93.2593V93.3744C343.93 94.6694 351.749 96.1946 351.749 103.367C351.749 111.13 339.509 113.008 330.422 113.008C329.234 113.008 327.614 112.95 325.836 112.893C324.137 112.835 322.351 112.778 320.738 112.778H308.16V111.605L308.153 111.598ZM322.178 90.1945C322.178 92.3096 322.942 92.4895 327.874 92.4895C337.644 92.4895 341.554 89.842 341.554 85.0865C341.554 79.1511 337.306 76.6762 328.212 76.6762C323.712 76.6762 322.178 77.8489 322.178 80.554V90.1945ZM322.178 109.188C322.178 111.655 323.028 111.835 329.652 111.835C339.682 111.835 344.441 108.778 344.441 103.195C344.441 96.4968 338.155 93.9068 327.528 93.9068C322.682 93.9068 322.171 94.4392 322.171 97.3745V109.188H322.178Z" fill="white" id="path11" style="fill:#000000;fill-opacity:1"></path><path d="M373.594 94.2272C373.594 89.7163 371.383 88.6084 367.812 88.6084C359.993 88.6084 363.226 95.3352 358.207 95.3352C356.767 95.3352 355.745 94.7452 355.745 93.5725C355.745 91.1552 363.391 87.04 369.936 87.04C375.631 87.04 379.541 89.2631 379.541 94.8747V109.184C379.541 110.688 380.729 111.076 381.665 111.076C382.939 111.076 383.789 110.688 384.638 110.098L385.488 110.817C384.3 112.256 381.413 113.3 378.857 113.3C376.301 113.3 373.759 111.861 373.587 109.443C369.591 112.249 365.681 113.3 362.455 113.3C357.61 113.3 354.211 111.076 354.211 108.206C354.211 103.695 359.057 101.033 369 99.069L373.594 98.1554V94.2272ZM373.594 99.1985L370.195 99.8532C363.816 101.098 360.504 103.961 360.504 106.702C360.504 109.12 362.29 111.076 366.113 111.076C368.827 111.076 371.297 109.774 373.594 108.4V99.1985Z" fill="white" id="path12" style="fill:#000000;fill-opacity:1"></path><path d="M396.41 87.5645V88.6076C393.264 88.6724 392.249 89.3918 392.249 90.9602C392.249 93.248 398.023 101.543 400.234 108.14H400.406C402.955 101.809 407.203 93.0538 407.203 91.1616C407.203 89.2695 405.59 88.9386 403.466 88.6148V87.5716H414V88.6148C411.962 89.2695 411.199 89.9242 409.154 94.1042L396.749 119.838C394.798 123.954 392.162 128.198 387.655 128.198C385.366 128.198 384.257 127.026 384.257 125.911C384.257 124.277 385.783 123.623 390.125 122.91C392.501 122.515 393.098 122.385 394.884 118.601C395.906 116.443 396.922 114.356 396.922 113.702C396.922 113.313 396.662 112.917 396.324 112.328L385.531 92.0106C384.422 89.989 383.58 89.14 381.024 88.6148V87.5716H396.403L396.41 87.5645Z" fill="white" id="path13" style="fill:#000000;fill-opacity:1"></path></svg> 